<svg xmlns="http://www.w3.org/2000/svg" width="128" height="144" viewBox="0 0 128 144">
    <g fill="#7A48FF" fill-rule="nonzero">
        <path d="M20.5 82a2.916 2.916 0 0 1-1.83-.645L1.1 67.238a2.95 2.95 0 0 1-.458-4.134 2.92 2.92 0 0 1 4.116-.46L20.5 75.293l15.742-12.647a2.92 2.92 0 0 1 4.116.459 2.95 2.95 0 0 1-.457 4.134L22.329 81.355A2.916 2.916 0 0 1 20.5 82zM122.076 91H51.923C50.31 91 49 89.657 49 88s1.308-3 2.923-3h70.154c1.614 0 2.923 1.343 2.923 3s-1.31 3-2.924 3zM87.11 115H66.89c-1.596 0-2.89-1.343-2.89-3v-12c0-1.656 1.293-3 2.89-3h20.22c1.597 0 2.89 1.343 2.89 3v12c0 1.657-1.293 3-2.89 3zm-17.332-6h14.444v-6H69.778v6z"/>
        <path d="M87.11 144H66.89c-1.596 0-2.89-1.306-2.89-2.917v-29.166c0-1.61 1.293-2.917 2.89-2.917h20.22c1.597 0 2.89 1.306 2.89 2.917v29.166c0 1.611-1.293 2.917-2.89 2.917zm-17.332-5.833h14.444v-23.333H69.778v23.333zM81 47c-1.657 0-3-1.315-3-2.937V2.937C78 1.315 79.343 0 81 0s3 1.315 3 2.937v41.126C84 45.685 82.657 47 81 47z"/>
        <path d="M105.1 29H81.9C80.3 29 79 27.713 79 26.125V8.875C79 7.287 80.298 6 81.9 6h23.2c1.601 0 2.9 1.287 2.9 2.875v17.25c0 1.588-1.298 2.875-2.9 2.875zm-20.3-5.75h17.4v-11.5H84.8v11.5zM125.05 102.777H50.352c-1.606 0-2.907-1.315-2.907-2.937V52.228c0-7.331-5.288-13.353-12.3-14.007-1.495-.14-2.64-1.407-2.64-2.925v-.072c0-1.623 1.302-2.938 2.908-2.938h65.234c15.058 0 27.309 12.078 27.309 26.923V99.84c0 1.622-1.302 2.937-2.908 2.937zm-71.79-5.874h68.882V59.21c0-11.607-9.641-21.05-21.494-21.05H47.626c.19.199.378.4.562.608 3.27 3.682 5.072 8.463 5.072 13.46v44.675z"/>
        <path d="M50.353 102.777H17.486c-1.606 0-2.907-1.315-2.907-2.937V91.03c0-1.622 1.301-2.938 2.907-2.938H34.93v-20.56H17.486c-1.606 0-2.907-1.314-2.907-2.937V52.227c0-10.995 8.676-19.941 19.34-19.941.572 0 1.148.028 1.763.086 4.799.447 9.24 2.719 12.505 6.395 3.271 3.683 5.073 8.463 5.073 13.46V99.84c0 1.622-1.302 2.937-2.907 2.937zm-29.96-5.874h27.053V52.228c0-7.331-5.288-13.352-12.3-14.007-.436-.04-.836-.06-1.226-.06-7.459 0-13.527 6.31-13.527 14.067v9.43h17.443c1.606 0 2.907 1.315 2.907 2.937v26.434c0 1.622-1.301 2.937-2.907 2.937H20.393v2.937z"/>
        <path d="M37.836 93.966H2.951c-1.606 0-2.907-1.315-2.907-2.937V64.595c0-1.623 1.3-2.938 2.907-2.938h34.885c1.606 0 2.907 1.315 2.907 2.938v26.434c0 1.622-1.301 2.937-2.907 2.937zM5.858 88.092h29.07v-20.56H5.859v20.56zM61 91c-1.657 0-3-1.306-3-2.917V58.917C58 57.306 59.343 56 61 56s3 1.306 3 2.917v29.166C64 89.694 62.657 91 61 91zM61 53a3.023 3.023 0 0 1-2.121-.879 3.022 3.022 0 0 1-.879-2.12c0-.79.32-1.564.879-2.122A3.024 3.024 0 0 1 61 47c.789 0 1.563.321 2.121.879S64 49.211 64 50c0 .79-.321 1.563-.879 2.121A3.024 3.024 0 0 1 61 53zM125.1 79H72.9c-1.602 0-2.9-1.343-2.9-3s1.298-3 2.9-3h52.2c1.601 0 2.9 1.343 2.9 3s-1.299 3-2.9 3z"/>
    </g>
</svg>
