<svg xmlns="http://www.w3.org/2000/svg" width="267" height="47" viewBox="0 0 267 47">
    <path fill="#7A48FF" fill-rule="nonzero" d="M17.672 16.512H35.72c.16 1.76.16 3.496 0 5.208-.16 1.712-.584 3.512-1.272 5.4-.688 1.888-1.624 3.536-2.808 4.944-1.184 1.408-2.864 2.576-5.04 3.504-2.176.928-4.704 1.392-7.584 1.392-5.312 0-9.72-1.552-13.224-4.656C2.288 29.2.536 24.912.536 19.44S2.16 9.6 5.408 6.336c3.248-3.264 7.56-4.896 12.936-4.896 2.464 0 4.68.304 6.648.912 1.968.608 3.544 1.408 4.728 2.4 1.184.992 2.08 1.848 2.688 2.568.608.72 1.12 1.48 1.536 2.28l-8.304 3.888a6.976 6.976 0 0 0-2.808-2.928c-1.232-.704-2.648-1.056-4.248-1.056-2.4 0-4.44.84-6.12 2.52-1.68 1.68-2.52 4.088-2.52 7.224 0 3.232.864 5.76 2.592 7.584 1.728 1.824 3.856 2.736 6.384 2.736 1.888 0 3.512-.512 4.872-1.536 1.36-1.024 2.232-2.4 2.616-4.128h-8.736v-7.392zM40.04 36V12.816h8.064v3.024c.16-.224.4-.528.72-.912 1.6-1.76 3.552-2.64 5.856-2.64.672 0 1.392.064 2.16.192v7.392c-.576-.256-1.296-.384-2.16-.384-1.152 0-2.152.216-3 .648-.848.432-1.472.912-1.872 1.44-.4.528-.712 1.16-.936 1.896-.224.736-.352 1.28-.384 1.632a11.15 11.15 0 0 0-.048 1.008V36h-8.4zm19.92-23.184h8.4V36h-8.4V12.816zm1.056-3.6c-.864-.864-1.296-1.904-1.296-3.12 0-1.216.432-2.256 1.296-3.12.864-.864 1.904-1.296 3.12-1.296 1.216 0 2.256.432 3.12 1.296.864.864 1.296 1.904 1.296 3.12 0 1.216-.432 2.256-1.296 3.12-.864.864-1.904 1.296-3.12 1.296-1.216 0-2.256-.432-3.12-1.296zM73.784 36V12.816h8.4v2.688c1.824-2.368 4.336-3.552 7.536-3.552 5.504 0 8.256 3.504 8.256 10.512V36h-8.4V23.232c0-2.912-.992-4.368-2.976-4.368-1.184 0-2.216.488-3.096 1.464-.88.976-1.32 2.392-1.32 4.248V36h-8.4zm40.752 0V2.4h20.16v8.064h-10.752v5.04h9.744v7.728h-9.744V36h-9.408zm41.328-20.352v-2.832h8.064V36h-8.064v-2.736c-1.856 2.4-4.384 3.6-7.584 3.6-3.072 0-5.64-1.128-7.704-3.384-2.064-2.256-3.096-5.288-3.096-9.096 0-1.536.208-3.016.624-4.44a13.84 13.84 0 0 1 1.872-3.96c.832-1.216 1.968-2.192 3.408-2.928 1.44-.736 3.072-1.104 4.896-1.104 3.136 0 5.664 1.232 7.584 3.696zm-4.704 14.304c1.504 0 2.72-.504 3.648-1.512.928-1.008 1.392-2.36 1.392-4.056 0-1.664-.464-3-1.392-4.008-.928-1.008-2.144-1.512-3.648-1.512-1.632 0-2.872.544-3.72 1.632-.848 1.088-1.272 2.384-1.272 3.888 0 1.536.424 2.848 1.272 3.936.848 1.088 2.088 1.632 3.72 1.632zm26.544-14.688c2.016-2.208 4.448-3.312 7.296-3.312 3.296 0 5.616 1.184 6.96 3.552 1.888-2.368 4.336-3.552 7.344-3.552 2.816 0 4.848.84 6.096 2.52 1.248 1.68 1.872 3.624 1.872 5.832V36h-8.4V22.464c0-2.4-.88-3.6-2.64-3.6-1.024 0-1.904.4-2.64 1.2-.736.8-1.104 1.968-1.104 3.504V36h-8.4V22.464c0-2.4-.88-3.6-2.64-3.6-1.024 0-1.904.4-2.64 1.2-.736.8-1.104 1.968-1.104 3.504V36h-8.4V12.816h8.4v2.448zm34.704-2.448h8.4V36h-8.4V12.816zm1.056-3.6c-.864-.864-1.296-1.904-1.296-3.12 0-1.216.432-2.256 1.296-3.12.864-.864 1.904-1.296 3.12-1.296 1.216 0 2.256.432 3.12 1.296.864.864 1.296 1.904 1.296 3.12 0 1.216-.432 2.256-1.296 3.12-.864.864-1.904 1.296-3.12 1.296-1.216 0-2.256-.432-3.12-1.296zM226.232 36V.72h8.4V36h-8.4zm10.56-23.184h9.744l6.384 12.432 5.424-12.432h8.688l-16.8 33.264h-9.072l7.056-13.44-11.424-19.824z"/>
</svg>
